<svg id="my-svg" width="100%" xmlns="http://www.w3.org/2000/svg" xmlns:xlink="http://www.w3.org/1999/xlink" class="flowchart" style="max-width: 1693.89px; background-color: white;" viewBox="0 0 1693.88623046875 240.34375" role="graphics-document document" aria-roledescription="flowchart-v2"><style>#my-svg{font-family:"trebuchet ms",verdana,arial,sans-serif;font-size:16px;fill:#334155;}@keyframes edge-animation-frame{from{stroke-dashoffset:0;}}@keyframes dash{to{stroke-dashoffset:0;}}#my-svg .edge-animation-slow{stroke-dasharray:9,5!important;stroke-dashoffset:900;animation:dash 50s linear infinite;stroke-linecap:round;}#my-svg .edge-animation-fast{stroke-dasharray:9,5!important;stroke-dashoffset:900;animation:dash 20s linear infinite;stroke-linecap:round;}#my-svg .error-icon{fill:#b46a00;}#my-svg .error-text{fill:#4b95ff;stroke:#4b95ff;}#my-svg .edge-thickness-normal{stroke-width:1px;}#my-svg .edge-thickness-thick{stroke-width:3.5px;}#my-svg .edge-pattern-solid{stroke-dasharray:0;}#my-svg .edge-thickness-invisible{stroke-width:0;fill:none;}#my-svg .edge-pattern-dashed{stroke-dasharray:3;}#my-svg .edge-pattern-dotted{stroke-dasharray:2;}#my-svg .marker{fill:#94a3b8;stroke:#94a3b8;}#my-svg .marker.cross{stroke:#94a3b8;}#my-svg svg{font-family:"trebuchet ms",verdana,arial,sans-serif;font-size:16px;}#my-svg p{margin:0;}#my-svg .label{font-family:"trebuchet ms",verdana,arial,sans-serif;color:#172033;}#my-svg .cluster-label text{fill:#172033;}#my-svg .cluster-label span{color:#172033;}#my-svg .cluster-label span p{background-color:transparent;}#my-svg .label text,#my-svg span{fill:#172033;color:#172033;}#my-svg .node rect,#my-svg .node circle,#my-svg .node ellipse,#my-svg .node polygon,#my-svg .node path{fill:#f8fafc;stroke:#cbd5e1;stroke-width:1px;}#my-svg .rough-node .label text,#my-svg .node .label text,#my-svg .image-shape .label,#my-svg .icon-shape .label{text-anchor:middle;}#my-svg .node .katex path{fill:#000;stroke:#000;stroke-width:1px;}#my-svg .rough-node .label,#my-svg .node .label,#my-svg .image-shape .label,#my-svg .icon-shape .label{text-align:center;}#my-svg .node.clickable{cursor:pointer;}#my-svg .root .anchor path{fill:#94a3b8!important;stroke-width:0;stroke:#94a3b8;}#my-svg .arrowheadPath{fill:#000000;}#my-svg .edgePath .path{stroke:#94a3b8;stroke-width:1px;}#my-svg .flowchart-link{stroke:#94a3b8;fill:none;}#my-svg .edgeLabel{background-color:#ffffff;text-align:center;}#my-svg .edgeLabel p{background-color:#ffffff;}#my-svg .edgeLabel rect{opacity:0.5;background-color:#ffffff;fill:#ffffff;}#my-svg .labelBkg{background-color:rgba(255, 255, 255, 0.5);}#my-svg .cluster rect{fill:#f1f5f9;stroke:#e2e8f0;stroke-width:1px;}#my-svg .cluster text{fill:#172033;}#my-svg .cluster span{color:#172033;}#my-svg div.mermaidTooltip{position:absolute;text-align:center;max-width:200px;padding:2px;font-family:"trebuchet ms",verdana,arial,sans-serif;font-size:12px;background:#b46a00;border:1px solid hsl(35.3333333333, 60%, 25.2941176471%);border-radius:2px;pointer-events:none;z-index:100;}#my-svg .flowchartTitleText{text-anchor:middle;font-size:18px;fill:#334155;}#my-svg rect.text{fill:none;stroke-width:0;}#my-svg .icon-shape,#my-svg .image-shape{background-color:#ffffff;text-align:center;}#my-svg .icon-shape p,#my-svg .image-shape p{background-color:#ffffff;padding:2px;}#my-svg .icon-shape .label rect,#my-svg .image-shape .label rect{opacity:0.5;background-color:#ffffff;fill:#ffffff;}#my-svg .label-icon{display:inline-block;height:1em;overflow:visible;vertical-align:-0.125em;}#my-svg .node .label-icon path{fill:currentColor;stroke:revert;stroke-width:revert;}#my-svg .node .neo-node{stroke:#cbd5e1;}#my-svg [data-look="neo"].node rect,#my-svg [data-look="neo"].cluster rect,#my-svg [data-look="neo"].node polygon{stroke:url(#my-svg-gradient);filter:drop-shadow( 1px 2px 2px rgba(185,185,185,1));}#my-svg [data-look="neo"].node path{stroke:url(#my-svg-gradient);stroke-width:1px;}#my-svg [data-look="neo"].node .outer-path{filter:drop-shadow( 1px 2px 2px rgba(185,185,185,1));}#my-svg [data-look="neo"].node .neo-line path{stroke:#cbd5e1;filter:none;}#my-svg [data-look="neo"].node circle{stroke:url(#my-svg-gradient);filter:drop-shadow( 1px 2px 2px rgba(185,185,185,1));}#my-svg [data-look="neo"].node circle .state-start{fill:#000000;}#my-svg [data-look="neo"].icon-shape .icon{fill:url(#my-svg-gradient);filter:drop-shadow( 1px 2px 2px rgba(185,185,185,1));}#my-svg [data-look="neo"].icon-shape .icon-neo path{stroke:url(#my-svg-gradient);filter:drop-shadow( 1px 2px 2px rgba(185,185,185,1));}#my-svg :root{--mermaid-font-family:"trebuchet ms",verdana,arial,sans-serif;}</style><g><marker id="my-svg_flowchart-v2-pointEnd" class="marker flowchart-v2" viewBox="0 0 10 10" refX="5" refY="5" markerUnits="userSpaceOnUse" markerWidth="8" markerHeight="8" orient="auto"><path d="M 0 0 L 10 5 L 0 10 z" class="arrowMarkerPath" style="stroke-width: 1; stroke-dasharray: 1, 0;"/></marker><marker id="my-svg_flowchart-v2-pointStart" class="marker flowchart-v2" viewBox="0 0 10 10" refX="4.5" refY="5" markerUnits="userSpaceOnUse" markerWidth="8" markerHeight="8" orient="auto"><path d="M 0 5 L 10 10 L 10 0 z" class="arrowMarkerPath" style="stroke-width: 1; stroke-dasharray: 1, 0;"/></marker><marker id="my-svg_flowchart-v2-pointEnd-margin" class="marker flowchart-v2" viewBox="0 0 11.5 14" refX="11.5" refY="7" markerUnits="userSpaceOnUse" markerWidth="10.5" markerHeight="14" orient="auto"><path d="M 0 0 L 11.5 7 L 0 14 z" class="arrowMarkerPath" style="stroke-width: 0; stroke-dasharray: 1, 0;"/></marker><marker id="my-svg_flowchart-v2-pointStart-margin" class="marker flowchart-v2" viewBox="0 0 11.5 14" refX="1" refY="7" markerUnits="userSpaceOnUse" markerWidth="11.5" markerHeight="14" orient="auto"><polygon points="0,7 11.5,14 11.5,0" class="arrowMarkerPath" style="stroke-width: 0; stroke-dasharray: 1, 0;"/></marker><marker id="my-svg_flowchart-v2-circleEnd" class="marker flowchart-v2" viewBox="0 0 10 10" refX="11" refY="5" markerUnits="userSpaceOnUse" markerWidth="11" markerHeight="11" orient="auto"><circle cx="5" cy="5" r="5" class="arrowMarkerPath" style="stroke-width: 1; stroke-dasharray: 1, 0;"/></marker><marker id="my-svg_flowchart-v2-circleStart" class="marker flowchart-v2" viewBox="0 0 10 10" refX="-1" refY="5" markerUnits="userSpaceOnUse" markerWidth="11" markerHeight="11" orient="auto"><circle cx="5" cy="5" r="5" class="arrowMarkerPath" style="stroke-width: 1; stroke-dasharray: 1, 0;"/></marker><marker id="my-svg_flowchart-v2-circleEnd-margin" class="marker flowchart-v2" viewBox="0 0 10 10" refY="5" refX="12.25" markerUnits="userSpaceOnUse" markerWidth="14" markerHeight="14" orient="auto"><circle cx="5" cy="5" r="5" class="arrowMarkerPath" style="stroke-width: 0; stroke-dasharray: 1, 0;"/></marker><marker id="my-svg_flowchart-v2-circleStart-margin" class="marker flowchart-v2" viewBox="0 0 10 10" refX="-2" refY="5" markerUnits="userSpaceOnUse" markerWidth="14" markerHeight="14" orient="auto"><circle cx="5" cy="5" r="5" class="arrowMarkerPath" style="stroke-width: 0; stroke-dasharray: 1, 0;"/></marker><marker id="my-svg_flowchart-v2-crossEnd" class="marker cross flowchart-v2" viewBox="0 0 11 11" refX="12" refY="5.2" markerUnits="userSpaceOnUse" markerWidth="11" markerHeight="11" orient="auto"><path d="M 1,1 l 9,9 M 10,1 l -9,9" class="arrowMarkerPath" style="stroke-width: 2; stroke-dasharray: 1, 0;"/></marker><marker id="my-svg_flowchart-v2-crossStart" class="marker cross flowchart-v2" viewBox="0 0 11 11" refX="-1" refY="5.2" markerUnits="userSpaceOnUse" markerWidth="11" markerHeight="11" orient="auto"><path d="M 1,1 l 9,9 M 10,1 l -9,9" class="arrowMarkerPath" style="stroke-width: 2; stroke-dasharray: 1, 0;"/></marker><marker id="my-svg_flowchart-v2-crossEnd-margin" class="marker cross flowchart-v2" viewBox="0 0 15 15" refX="17.7" refY="7.5" markerUnits="userSpaceOnUse" markerWidth="12" markerHeight="12" orient="auto"><path d="M 1,1 L 14,14 M 1,14 L 14,1" class="arrowMarkerPath" style="stroke-width: 2.5;"/></marker><marker id="my-svg_flowchart-v2-crossStart-margin" class="marker cross flowchart-v2" viewBox="0 0 15 15" refX="-3.5" refY="7.5" markerUnits="userSpaceOnUse" markerWidth="12" markerHeight="12" orient="auto"><path d="M 1,1 L 14,14 M 1,14 L 14,1" class="arrowMarkerPath" style="stroke-width: 2.5; stroke-dasharray: 1, 0;"/></marker><g class="root"><g class="clusters"/><g class="edgePaths"><path d="M130.949,120.672L135.032,120.589C139.115,120.505,147.282,120.339,154.865,120.255C162.449,120.172,169.449,120.172,172.949,120.172L176.449,120.172" id="my-svg-L_userQuestion_fanOut_0" class="edge-thickness-normal edge-pattern-solid edge-thickness-normal edge-pattern-solid flowchart-link" style=";" data-edge="true" data-et="edge" data-id="L_userQuestion_fanOut_0" data-points="W3sieCI6MTMwLjk0ODcxMjQzMTgyNjksInkiOjEyMC42NzE4NzQ5OTk5OTk5OX0seyJ4IjoxNTUuNDQ4NzE1MjA5OTYwOTQsInkiOjEyMC4xNzE4NzV9LHsieCI6MTgwLjQ0ODcxNTIwOTk2MDk0LCJ5IjoxMjAuMTcxODc1fV0=" data-look="classic" marker-end="url(#my-svg_flowchart-v2-pointEnd)"/><path d="M340.277,120.172L344.444,120.172C348.61,120.172,356.944,120.172,364.61,120.172C372.277,120.172,379.277,120.172,382.777,120.172L386.277,120.172" id="my-svg-L_fanOut_retrieval_0" class="edge-thickness-normal edge-pattern-solid edge-thickness-normal edge-pattern-solid flowchart-link" style=";" data-edge="true" data-et="edge" data-id="L_fanOut_retrieval_0" data-points="W3sieCI6MzQwLjI3Njg0MDIwOTk2MDk0LCJ5IjoxMjAuMTcxODc1fSx7IngiOjM2NS4yNzY4NDAyMDk5NjA5NCwieSI6MTIwLjE3MTg3NX0seyJ4IjozOTAuMjc2ODQwMjA5OTYwOTQsInkiOjEyMC4xNzE4NzV9XQ==" data-look="classic" marker-end="url(#my-svg_flowchart-v2-pointEnd)"/><path d="M650.277,120.172L654.444,120.172C658.61,120.172,666.944,120.172,674.61,120.172C682.277,120.172,689.277,120.172,692.777,120.172L696.277,120.172" id="my-svg-L_retrieval_candidateSources_0" class="edge-thickness-normal edge-pattern-solid edge-thickness-normal edge-pattern-solid flowchart-link" style=";" data-edge="true" data-et="edge" data-id="L_retrieval_candidateSources_0" data-points="W3sieCI6NjUwLjI3Njg0MDIwOTk2MDksInkiOjEyMC4xNzE4NzV9LHsieCI6Njc1LjI3Njg0MDIwOTk2MDksInkiOjEyMC4xNzE4NzV9LHsieCI6NzAwLjI3Njg0MDIwOTk2MDksInkiOjEyMC4xNzE4NzV9XQ==" data-look="classic" marker-end="url(#my-svg_flowchart-v2-pointEnd)"/><path d="M929.73,120.172L933.897,120.172C938.063,120.172,946.397,120.172,954.063,120.172C961.73,120.172,968.73,120.172,972.23,120.172L975.73,120.172" id="my-svg-L_candidateSources_evaluate_0" class="edge-thickness-normal edge-pattern-solid edge-thickness-normal edge-pattern-solid flowchart-link" style=";" data-edge="true" data-et="edge" data-id="L_candidateSources_evaluate_0" data-points="W3sieCI6OTI5LjcyOTk2NTIwOTk2MDksInkiOjEyMC4xNzE4NzV9LHsieCI6OTU0LjcyOTk2NTIwOTk2MDksInkiOjEyMC4xNzE4NzV9LHsieCI6OTc5LjcyOTk2NTIwOTk2MDksInkiOjEyMC4xNzE4NzV9XQ==" data-look="classic" marker-end="url(#my-svg_flowchart-v2-pointEnd)"/><path d="M1174.982,91.08L1185.885,87.262C1196.788,83.444,1218.595,75.808,1234.935,71.99C1251.274,68.172,1262.147,68.172,1267.583,68.172L1273.019,68.172" id="my-svg-L_evaluate_synthesize_0" class="edge-thickness-normal edge-pattern-solid edge-thickness-normal edge-pattern-solid flowchart-link" style=";" data-edge="true" data-et="edge" data-id="L_evaluate_synthesize_0" data-points="W3sieCI6MTE3NC45ODE3NTc2MDM5NzYsInkiOjkxLjA3OTkxNzM5NDAxNDk2fSx7IngiOjEyNDAuNDAxODQwMjA5OTYxLCJ5Ijo2OC4xNzE4NzV9LHsieCI6MTI3Ny4wMTkwMjc3MDk5NjEsInkiOjY4LjE3MTg3NX1d" data-look="classic" marker-end="url(#my-svg_flowchart-v2-pointEnd)"/><path d="M1467.941,68.172L1472.156,68.172C1476.371,68.172,1484.8,68.172,1492.515,68.172C1500.23,68.172,1507.23,68.172,1510.73,68.172L1514.23,68.172" id="my-svg-L_synthesize_cite_0" class="edge-thickness-normal edge-pattern-solid edge-thickness-normal edge-pattern-solid flowchart-link" style=";" data-edge="true" data-et="edge" data-id="L_synthesize_cite_0" data-points="W3sieCI6MTQ2Ny45NDA5MDI3MDk5NjEsInkiOjY4LjE3MTg3NX0seyJ4IjoxNDkzLjIyOTk2NTIwOTk2MSwieSI6NjguMTcxODc1fSx7IngiOjE1MTguMjI5OTY1MjA5OTYxLCJ5Ijo2OC4xNzE4NzV9XQ==" data-look="classic" marker-end="url(#my-svg_flowchart-v2-pointEnd)"/><path d="M1174.982,149.264L1185.885,153.082C1196.788,156.9,1218.595,164.536,1234.887,168.354C1251.178,172.172,1261.954,172.172,1267.342,172.172L1272.73,172.172" id="my-svg-L_evaluate_unused_0" class="edge-thickness-normal edge-pattern-solid edge-thickness-normal edge-pattern-solid flowchart-link" style=";" data-edge="true" data-et="edge" data-id="L_evaluate_unused_0" data-points="W3sieCI6MTE3NC45ODE3NTc2MDM5NzYsInkiOjE0OS4yNjM4MzI2MDU5ODUwNH0seyJ4IjoxMjQwLjQwMTg0MDIwOTk2MSwieSI6MTcyLjE3MTg3NX0seyJ4IjoxMjc2LjcyOTk2NTIwOTk2MSwieSI6MTcyLjE3MTg3NX1d" data-look="classic" marker-end="url(#my-svg_flowchart-v2-pointEnd)"/></g><g class="edgeLabels"><g class="edgeLabel"><g class="label" data-id="L_userQuestion_fanOut_0" transform="translate(0, 0)"><foreignObject width="0" height="0"><div xmlns="http://www.w3.org/1999/xhtml" class="labelBkg" style="display: table-cell; white-space: nowrap; line-height: 1.5; max-width: 200px; text-align: center;"><span class="edgeLabel"></span></div></foreignObject></g></g><g class="edgeLabel"><g class="label" data-id="L_fanOut_retrieval_0" transform="translate(0, 0)"><foreignObject width="0" height="0"><div xmlns="http://www.w3.org/1999/xhtml" class="labelBkg" style="display: table-cell; white-space: nowrap; line-height: 1.5; max-width: 200px; text-align: center;"><span class="edgeLabel"></span></div></foreignObject></g></g><g class="edgeLabel"><g class="label" data-id="L_retrieval_candidateSources_0" transform="translate(0, 0)"><foreignObject width="0" height="0"><div xmlns="http://www.w3.org/1999/xhtml" class="labelBkg" style="display: table-cell; white-space: nowrap; line-height: 1.5; max-width: 200px; text-align: center;"><span class="edgeLabel"></span></div></foreignObject></g></g><g class="edgeLabel"><g class="label" data-id="L_candidateSources_evaluate_0" transform="translate(0, 0)"><foreignObject width="0" height="0"><div xmlns="http://www.w3.org/1999/xhtml" class="labelBkg" style="display: table-cell; white-space: nowrap; line-height: 1.5; max-width: 200px; text-align: center;"><span class="edgeLabel"></span></div></foreignObject></g></g><g class="edgeLabel" transform="translate(1240.401840209961, 68.171875)"><g class="label" data-id="L_evaluate_synthesize_0" transform="translate(-11.328125, -12)"><foreignObject width="22.65625" height="24"><div xmlns="http://www.w3.org/1999/xhtml" class="labelBkg" style="display: table-cell; white-space: nowrap; line-height: 1.5; max-width: 200px; text-align: center;"><span class="edgeLabel"><p>Yes</p></span></div></foreignObject></g></g><g class="edgeLabel"><g class="label" data-id="L_synthesize_cite_0" transform="translate(0, 0)"><foreignObject width="0" height="0"><div xmlns="http://www.w3.org/1999/xhtml" class="labelBkg" style="display: table-cell; white-space: nowrap; line-height: 1.5; max-width: 200px; text-align: center;"><span class="edgeLabel"></span></div></foreignObject></g></g><g class="edgeLabel" transform="translate(1240.401840209961, 172.171875)"><g class="label" data-id="L_evaluate_unused_0" transform="translate(-9.3984375, -12)"><foreignObject width="18.796875" height="24"><div xmlns="http://www.w3.org/1999/xhtml" class="labelBkg" style="display: table-cell; white-space: nowrap; line-height: 1.5; max-width: 200px; text-align: center;"><span class="edgeLabel"><p>No</p></span></div></foreignObject></g></g></g><g class="nodes"><g class="node default" id="my-svg-flowchart-userQuestion-0" data-look="classic" transform="translate(69.22435760498047, 120.171875)"><g class="basic label-container outer-path"><path d="M-41.734375 -19.5 C-19.484228598052013 -19.5, 2.7659178038959737 -19.5, 41.734375 -19.5 C41.734375 -19.5, 41.734375 -19.5, 41.734375 -19.5 C42.07435240305774 -19.48909758640981, 42.41432980611547 -19.478195172819618, 42.9837442896239 -19.45993515863156 C43.43765058866146 -19.416147363865598, 43.891556887699025 -19.372359569099636, 44.227979652847864 -19.3399052695533 C44.50701957843861 -19.29479225837073, 44.78605950402935 -19.249679247188162, 45.46196825967676 -19.140403561325776 C45.7817948068103 -19.06740523900581, 46.10162135394384 -18.994406916685847, 46.68063938623539 -18.862249829261074 C46.940600603596074 -18.7850947045127, 47.20056182095675 -18.707939579764325, 47.878985251460605 -18.50658706670804 C48.28135360185522 -18.358511794310562, 48.68372195224984 -18.210436521913085, 49.0520815951478 -18.074876768247425 C49.457116803420355 -17.895579696487726, 49.86215201169291 -17.716282624728024, 50.19510791279238 -17.568892924097174 C50.453653107047636 -17.434010061860306, 50.7121983013029 -17.299127199623438, 51.30336726407678 -16.990714730406097 C51.69527212507121 -16.753139700582672, 52.08717698606564 -16.515564670759243, 52.3723055736057 -16.342718045390892 C52.78005045149572 -16.058292869566095, 53.187795329385736 -15.773867693741298, 53.39753034457871 -15.627565626425154 C53.71494001409288 -15.374439861613643, 54.03234968360705 -15.121314096802132, 54.374828708501866 -14.848196188198123 C54.661417836862675 -14.587923524553656, 54.94800696522348 -14.32765086090919, 55.30018473676799 -14.007812326905688 C55.484487608230566 -13.817504480573422, 55.668790479693136 -13.627196634241155, 56.16979594296865 -13.10986736009568 C56.403274486498766 -12.835610177559722, 56.636753030028885 -12.561352995023764, 56.98008890812658 -12.158051136245305 C57.241758581925225 -11.807437611952816, 57.50342825572386 -11.456824087660326, 57.727733964640635 -11.156274872382312 C57.89910190095229 -10.893007703473478, 58.07046983726395 -10.629740534564643, 58.40965887860425 -10.108655082055241 C58.606712035143175 -9.758767248824569, 58.803765191682096 -9.408879415593894, 59.023061474273504 -9.019496659696287 C59.233679778404515 -8.582143244658464, 59.444298082535525 -8.144789829620642, 59.56542114880834 -7.893275190886684 C59.67154611430023 -7.631144474335097, 59.777671079792114 -7.36901375778351, 60.034509229970325 -6.734618561215508 C60.12871210890783 -6.450894499046221, 60.22291498784533 -6.167170436876935, 60.42839813421488 -5.548287939305138 C60.495737309395395 -5.291494479358689, 60.563076484575916 -5.03470101941224, 60.74546928754556 -4.339158212148133 C60.79641831134964 -4.077545742994172, 60.84736733515372 -3.8159332738402094, 60.984419776581774 -3.1121979531509023 C61.025425783649894 -2.794163459882549, 61.06643179071802 -2.476128966614196, 61.14426770250937 -1.872449005199798 C61.1676371825818 -1.508450489566909, 61.191006662654225 -1.1444519739340202, 61.22435621591342 -0.6250057626472757 C61.22435621591342 -0.337589733828526, 61.22435621591342 -0.05017370500977625, 61.22435621591342 0.625005762647271 C61.19556305154819 1.0734825390596376, 61.16676988718296 1.5219593154720041, 61.14426770250937 1.8724490051997846 C61.086043323962215 2.324025787507469, 61.02781894541506 2.7756025698151525, 60.984419776581774 3.1121979531508885 C60.90074391995965 3.541855792006934, 60.81706806333753 3.9715136308629786, 60.74546928754556 4.339158212148129 C60.68036586804947 4.587425766687222, 60.61526244855338 4.835693321226314, 60.42839813421489 5.548287939305125 C60.304623374969204 5.921077793323381, 60.18084861572351 6.293867647341637, 60.034509229970325 6.734618561215495 C59.850813506579435 7.188350549506192, 59.66711778318855 7.64208253779689, 59.56542114880834 7.893275190886679 C59.45450209977908 8.123600969483407, 59.34358305074981 8.353926748080136, 59.023061474273504 9.019496659696284 C58.786672045848306 9.439230026890487, 58.550282617423115 9.85896339408469, 58.40965887860425 10.108655082055236 C58.144349446184364 10.5162416158101, 57.87904001376448 10.923828149564967, 57.72773396464064 11.156274872382301 C57.51032230876681 11.447586684643927, 57.29291065289298 11.738898496905552, 56.98008890812658 12.158051136245302 C56.67551354551847 12.51582268799388, 56.370938182910365 12.873594239742461, 56.16979594296866 13.10986736009567 C55.86330504297367 13.426344377711365, 55.55681414297867 13.74282139532706, 55.30018473676799 14.007812326905684 C54.963582978618284 14.31350513766276, 54.62698122046858 14.619197948419835, 54.37482870850189 14.848196188198111 C54.082151269030994 15.081598657702388, 53.7894738295601 15.315001127206664, 53.39753034457871 15.627565626425152 C53.16664075351157 15.788624210104285, 52.93575116244443 15.949682793783417, 52.37230557360571 16.34271804539089 C52.14401836112598 16.48110709516067, 51.91573114864625 16.619496144930455, 51.30336726407678 16.990714730406093 C50.964710370204834 17.167391815018995, 50.62605347633289 17.344068899631896, 50.19510791279239 17.56889292409717 C49.76070870815484 17.76118856599565, 49.32630950351728 17.953484207894128, 49.052081595147804 18.07487676824742 C48.63634498384037 18.227871684235666, 48.22060837253292 18.38086660022391, 47.87898525146062 18.506587066708033 C47.584952752622314 18.59385436895516, 47.29092025378401 18.681121671202288, 46.68063938623541 18.86224982926107 C46.418500946074666 18.922081217614576, 46.15636250591392 18.981912605968077, 45.461968259676766 19.140403561325773 C45.018117832407384 19.212161856295214, 44.574267405137995 19.28392015126466, 44.22797965284788 19.3399052695533 C43.841093261941865 19.37722773438504, 43.45420687103585 19.414550199216784, 42.9837442896239 19.45993515863156 C42.54614657047221 19.473968065752466, 42.10854885132052 19.48800097287337, 41.73437500000001 19.5 C41.73437500000001 19.5, 41.734375 19.5, 41.734375 19.5 C15.624870569778697 19.5, -10.484633860442607 19.5, -41.73437499999999 19.5 C-42.0195099817978 19.490856276115316, -42.304644963595614 19.481712552230636, -42.98374428962389 19.45993515863156 C-43.25885468895509 19.433395589276742, -43.53396508828629 19.406856019921925, -44.22797965284787 19.3399052695533 C-44.533451952127095 19.290518877178894, -44.838924251406326 19.241132484804492, -45.46196825967676 19.140403561325773 C-45.86667527881139 19.048031825168405, -46.27138229794602 18.955660089011037, -46.680639386235384 18.862249829261074 C-47.05074228691368 18.752405231049526, -47.42084518759198 18.642560632837977, -47.87898525146059 18.506587066708043 C-48.19853368014282 18.388990291079686, -48.51808210882506 18.27139351545133, -49.0520815951478 18.074876768247425 C-49.298362267763814 17.965855620136896, -49.54464294037984 17.856834472026367, -50.19510791279238 17.568892924097174 C-50.58417223112824 17.365918318428946, -50.973236549464104 17.16294371276072, -51.30336726407678 16.990714730406097 C-51.53531505350105 16.850106617380597, -51.76726284292532 16.709498504355093, -52.372305573605686 16.3427180453909 C-52.69942726410517 16.11453211496821, -53.02654895460466 15.886346184545518, -53.39753034457871 15.627565626425156 C-53.73976273111343 15.354644405350001, -54.08199511764814 15.081723184274848, -54.374828708501866 14.848196188198125 C-54.670211768445846 14.579937108564499, -54.965594828389825 14.31167802893087, -55.300184736767974 14.007812326905697 C-55.53150074808234 13.7689595538259, -55.7628167593967 13.530106780746102, -56.169795942968655 13.109867360095677 C-56.45190876965813 12.778481581191624, -56.73402159634761 12.447095802287572, -56.980088908126575 12.158051136245307 C-57.27292919562904 11.765671829291028, -57.5657694831315 11.37329252233675, -57.727733964640635 11.156274872382316 C-57.90471122159852 10.884390280647379, -58.0816884785564 10.612505688912444, -58.40965887860425 10.108655082055249 C-58.60924661120575 9.754266852371813, -58.80883434380725 9.399878622688378, -59.023061474273504 9.019496659696289 C-59.2351269712685 8.579138117711427, -59.4471924682635 8.138779575726565, -59.56542114880834 7.893275190886686 C-59.73305030789921 7.479227927042926, -59.90067946699008 7.065180663199166, -60.034509229970325 6.73461856121551 C-60.13533155239477 6.430957789928647, -60.236153874819216 6.1272970186417846, -60.42839813421488 5.5482879393051325 C-60.542899434294256 5.111644856925103, -60.65740073437364 4.675001774545075, -60.74546928754556 4.339158212148136 C-60.80935484538262 4.011119374872249, -60.87324040321968 3.6830805375963616, -60.984419776581774 3.112197953150904 C-61.019075024460186 2.843418694058665, -61.053730272338605 2.5746394349664254, -61.14426770250937 1.872449005199809 C-61.161539305290404 1.60342985049831, -61.17881090807144 1.334410695796811, -61.22435621591342 0.6250057626472781 C-61.22435621591342 0.23995112935674678, -61.22435621591342 -0.14510350393378457, -61.22435621591342 -0.6250057626472687 C-61.20103938555214 -0.9881842165308257, -61.17772255519087 -1.3513626704143826, -61.14426770250937 -1.8724490051997822 C-61.0892737608427 -2.298971156984327, -61.034279819176035 -2.7254933087688724, -60.984419776581774 -3.112197953150895 C-60.89065817472615 -3.5936439621579517, -60.79689657287053 -4.075089971165008, -60.74546928754556 -4.339158212148126 C-60.62013241278551 -4.817122036953343, -60.494795538025464 -5.29508586175856, -60.42839813421489 -5.548287939305123 C-60.32032884641032 -5.87377541566979, -60.21225955860575 -6.199262892034458, -60.03450922997033 -6.734618561215485 C-59.90307033468859 -7.059275173759543, -59.77163143940685 -7.3839317863036005, -59.56542114880834 -7.893275190886676 C-59.401921915552116 -8.232784847066403, -59.23842268229589 -8.572294503246129, -59.023061474273504 -9.019496659696282 C-58.87801947595763 -9.277033414801064, -58.732977477641754 -9.534570169905844, -58.40965887860425 -10.108655082055243 C-58.14265775242661 -10.518840511705399, -57.875656626248976 -10.929025941355553, -57.72773396464064 -11.156274872382308 C-57.50744050758649 -11.451448035688081, -57.287147050532326 -11.746621198993854, -56.98008890812659 -12.158051136245302 C-56.72899184934541 -12.453004029317075, -56.47789479056423 -12.747956922388848, -56.16979594296866 -13.10986736009567 C-55.878624165403004 -13.41052612607973, -55.58745238783735 -13.711184892063793, -55.300184736767996 -14.007812326905677 C-54.943120359073085 -14.332088747322462, -54.58605598137817 -14.656365167739247, -54.37482870850189 -14.848196188198107 C-53.98949701867932 -15.15548795672469, -53.604165328856766 -15.462779725251274, -53.39753034457872 -15.627565626425149 C-53.081914371019565 -15.847725666784726, -52.76629839746041 -16.067885707144303, -52.372305573605715 -16.342718045390885 C-52.09618945206536 -16.510101260907085, -51.82007333052501 -16.677484476423288, -51.30336726407679 -16.99071473040609 C-50.9631084278751 -17.168227547306326, -50.622849591673415 -17.34574036420656, -50.19510791279239 -17.56889292409717 C-49.88164456567989 -17.70765384930406, -49.56818121856739 -17.84641477451095, -49.052081595147804 -18.07487676824742 C-48.79412252791968 -18.169808089534847, -48.536163460691554 -18.264739410822276, -47.87898525146062 -18.506587066708033 C-47.49446412396793 -18.62071091895528, -47.10994299647523 -18.73483477120252, -46.68063938623541 -18.862249829261067 C-46.38220314166416 -18.93036595460596, -46.0837668970929 -18.998482079950854, -45.461968259676766 -19.140403561325773 C-45.14876384922914 -19.191040021470467, -44.83555943878151 -19.24167648161516, -44.22797965284788 -19.3399052695533 C-43.780203720278834 -19.383101675238887, -43.33242778770978 -19.426298080924475, -42.9837442896239 -19.45993515863156 C-42.68823594956256 -19.469411535925236, -42.39272760950122 -19.478887913218912, -41.73437500000001 -19.5 C-41.73437500000001 -19.5, -41.734375 -19.5, -41.734375 -19.5" stroke="none" stroke-width="0" fill="#f8fafc" style=""/><path d="M-41.734375 -19.5 C-16.2119830473544 -19.5, 9.310408905291197 -19.5, 41.734375 -19.5 M-41.734375 -19.5 C-17.437203640011177 -19.5, 6.8599677199776465 -19.5, 41.734375 -19.5 M41.734375 -19.5 C41.734375 -19.5, 41.734375 -19.5, 41.734375 -19.5 M41.734375 -19.5 C41.734375 -19.5, 41.734375 -19.5, 41.734375 -19.5 M41.734375 -19.5 C42.0322086702098 -19.490449053894444, 42.330042340419595 -19.480898107788885, 42.9837442896239 -19.45993515863156 M41.734375 -19.5 C42.2216862571048 -19.48437287647847, 42.70899751420961 -19.468745752956938, 42.9837442896239 -19.45993515863156 M42.9837442896239 -19.45993515863156 C43.259452797480456 -19.433337890466632, 43.53516130533701 -19.4067406223017, 44.227979652847864 -19.3399052695533 M42.9837442896239 -19.45993515863156 C43.26404967620529 -19.4328944351046, 43.54435506278667 -19.405853711577645, 44.227979652847864 -19.3399052695533 M44.227979652847864 -19.3399052695533 C44.6488447732036 -19.27186306075194, 45.06970989355933 -19.203820851950578, 45.46196825967676 -19.140403561325776 M44.227979652847864 -19.3399052695533 C44.64552051097065 -19.272400501689724, 45.06306136909344 -19.20489573382615, 45.46196825967676 -19.140403561325776 M45.46196825967676 -19.140403561325776 C45.77099270656919 -19.069870747895553, 46.080017153461625 -18.99933793446533, 46.68063938623539 -18.862249829261074 M45.46196825967676 -19.140403561325776 C45.82488859227477 -19.057569363686778, 46.187808924872776 -18.97473516604778, 46.68063938623539 -18.862249829261074 M46.68063938623539 -18.862249829261074 C46.940231651518324 -18.785204207552706, 47.199823916801265 -18.708158585844338, 47.878985251460605 -18.50658706670804 M46.68063938623539 -18.862249829261074 C47.01129902975858 -18.764111782731277, 47.34195867328178 -18.665973736201483, 47.878985251460605 -18.50658706670804 M47.878985251460605 -18.50658706670804 C48.20500077230677 -18.386610341382212, 48.53101629315293 -18.266633616056385, 49.0520815951478 -18.074876768247425 M47.878985251460605 -18.50658706670804 C48.310710869031126 -18.347708048614226, 48.74243648660165 -18.188829030520413, 49.0520815951478 -18.074876768247425 M49.0520815951478 -18.074876768247425 C49.343739630729715 -17.94576840762354, 49.63539766631163 -17.816660046999655, 50.19510791279238 -17.568892924097174 M49.0520815951478 -18.074876768247425 C49.39139262008169 -17.924673842813124, 49.73070364501558 -17.774470917378824, 50.19510791279238 -17.568892924097174 M50.19510791279238 -17.568892924097174 C50.52158360897815 -17.398570762514723, 50.848059305163915 -17.22824860093227, 51.30336726407678 -16.990714730406097 M50.19510791279238 -17.568892924097174 C50.518401548939316 -17.400230841198773, 50.84169518508626 -17.231568758300373, 51.30336726407678 -16.990714730406097 M51.30336726407678 -16.990714730406097 C51.72085038500131 -16.737634009098503, 52.13833350592584 -16.48455328779091, 52.3723055736057 -16.342718045390892 M51.30336726407678 -16.990714730406097 C51.699200332644644 -16.750758398066946, 52.095033401212504 -16.510802065727795, 52.3723055736057 -16.342718045390892 M52.3723055736057 -16.342718045390892 C52.680266184475364 -16.127898054648192, 52.988226795345035 -15.913078063905495, 53.39753034457871 -15.627565626425154 M52.3723055736057 -16.342718045390892 C52.6614707259373 -16.14100895288206, 52.950635878268905 -15.93929986037323, 53.39753034457871 -15.627565626425154 M53.39753034457871 -15.627565626425154 C53.709000955034156 -15.37917610316798, 54.02047156548959 -15.130786579910806, 54.374828708501866 -14.848196188198123 M53.39753034457871 -15.627565626425154 C53.776169185612616 -15.325611226703337, 54.15480802664653 -15.02365682698152, 54.374828708501866 -14.848196188198123 M54.374828708501866 -14.848196188198123 C54.57505692356309 -14.666354221027785, 54.77528513862431 -14.484512253857448, 55.30018473676799 -14.007812326905688 M54.374828708501866 -14.848196188198123 C54.61227167115253 -14.632556771915322, 54.84971463380319 -14.416917355632519, 55.30018473676799 -14.007812326905688 M55.30018473676799 -14.007812326905688 C55.55724800677253 -13.742373395339026, 55.81431127677707 -13.476934463772364, 56.16979594296865 -13.10986736009568 M55.30018473676799 -14.007812326905688 C55.629753016782246 -13.667506019731963, 55.9593212967965 -13.327199712558238, 56.16979594296865 -13.10986736009568 M56.16979594296865 -13.10986736009568 C56.46700187586169 -12.76075235982285, 56.76420780875473 -12.411637359550022, 56.98008890812658 -12.158051136245305 M56.16979594296865 -13.10986736009568 C56.335252008543065 -12.91551325075513, 56.50070807411749 -12.721159141414578, 56.98008890812658 -12.158051136245305 M56.98008890812658 -12.158051136245305 C57.223058023901665 -11.8324946560485, 57.46602713967675 -11.506938175851694, 57.727733964640635 -11.156274872382312 M56.98008890812658 -12.158051136245305 C57.19825734617894 -11.865725304808729, 57.4164257842313 -11.573399473372152, 57.727733964640635 -11.156274872382312 M57.727733964640635 -11.156274872382312 C57.99361695666193 -10.747807197057355, 58.259499948683235 -10.339339521732397, 58.40965887860425 -10.108655082055241 M57.727733964640635 -11.156274872382312 C57.874200251490805 -10.931263324075477, 58.02066653834097 -10.706251775768644, 58.40965887860425 -10.108655082055241 M58.40965887860425 -10.108655082055241 C58.569298635232244 -9.825198528883977, 58.72893839186024 -9.541741975712714, 59.023061474273504 -9.019496659696287 M58.40965887860425 -10.108655082055241 C58.5539607355833 -9.852432522841427, 58.69826259256236 -9.596209963627611, 59.023061474273504 -9.019496659696287 M59.023061474273504 -9.019496659696287 C59.195247520120994 -8.661948651302787, 59.36743356596848 -8.304400642909286, 59.56542114880834 -7.893275190886684 M59.023061474273504 -9.019496659696287 C59.21716868764627 -8.616428877898704, 59.41127590101904 -8.21336109610112, 59.56542114880834 -7.893275190886684 M59.56542114880834 -7.893275190886684 C59.66673682498538 -7.643023511924057, 59.768052501162416 -7.392771832961431, 60.034509229970325 -6.734618561215508 M59.56542114880834 -7.893275190886684 C59.73462674640684 -7.47533409345072, 59.90383234400533 -7.057392996014756, 60.034509229970325 -6.734618561215508 M60.034509229970325 -6.734618561215508 C60.16240437035001 -6.349418775715229, 60.29029951072969 -5.96421899021495, 60.42839813421488 -5.548287939305138 M60.034509229970325 -6.734618561215508 C60.15694249384849 -6.365869077505958, 60.279375757726655 -5.997119593796408, 60.42839813421488 -5.548287939305138 M60.42839813421488 -5.548287939305138 C60.523611623229414 -5.1851976399055575, 60.61882511224395 -4.822107340505976, 60.74546928754556 -4.339158212148133 M60.42839813421488 -5.548287939305138 C60.50769367926993 -5.2458996591036255, 60.586989224324974 -4.943511378902113, 60.74546928754556 -4.339158212148133 M60.74546928754556 -4.339158212148133 C60.81486727009845 -3.9828142390078334, 60.884265252651346 -3.6264702658675336, 60.984419776581774 -3.1121979531509023 M60.74546928754556 -4.339158212148133 C60.79330642338539 -4.093524629992855, 60.841143559225216 -3.8478910478375767, 60.984419776581774 -3.1121979531509023 M60.984419776581774 -3.1121979531509023 C61.04155149888878 -2.6690955968724044, 61.09868322119579 -2.2259932405939065, 61.14426770250937 -1.872449005199798 M60.984419776581774 -3.1121979531509023 C61.0411039814667 -2.672566453625789, 61.09778818635162 -2.232934954100676, 61.14426770250937 -1.872449005199798 M61.14426770250937 -1.872449005199798 C61.16662327780719 -1.524242874840651, 61.188978853105006 -1.1760367444815039, 61.22435621591342 -0.6250057626472757 M61.14426770250937 -1.872449005199798 C61.174999263256055 -1.3937801405007806, 61.20573082400274 -0.9151112758017631, 61.22435621591342 -0.6250057626472757 M61.22435621591342 -0.6250057626472757 C61.22435621591342 -0.15814719091104834, 61.22435621591342 0.308711380825179, 61.22435621591342 0.625005762647271 M61.22435621591342 -0.6250057626472757 C61.22435621591342 -0.35747168468232293, 61.22435621591342 -0.08993760671737017, 61.22435621591342 0.625005762647271 M61.22435621591342 0.625005762647271 C61.20244379345369 0.9663094298465777, 61.18053137099396 1.3076130970458844, 61.14426770250937 1.8724490051997846 M61.22435621591342 0.625005762647271 C61.19487381065754 1.0842180222767044, 61.165391405401664 1.5434302819061378, 61.14426770250937 1.8724490051997846 M61.14426770250937 1.8724490051997846 C61.1069499399742 2.1618782021968133, 61.06963217743903 2.451307399193842, 60.984419776581774 3.1121979531508885 M61.14426770250937 1.8724490051997846 C61.096899065581916 2.239830799213731, 61.049530428654464 2.6072125932276777, 60.984419776581774 3.1121979531508885 M60.984419776581774 3.1121979531508885 C60.91432625054262 3.4721133950899667, 60.84423272450347 3.832028837029045, 60.74546928754556 4.339158212148129 M60.984419776581774 3.1121979531508885 C60.926200959292956 3.4111392753775944, 60.86798214200413 3.7100805976043008, 60.74546928754556 4.339158212148129 M60.74546928754556 4.339158212148129 C60.62077595450528 4.814667933463141, 60.496082621464986 5.2901776547781525, 60.42839813421489 5.548287939305125 M60.74546928754556 4.339158212148129 C60.63287712910483 4.768520910032811, 60.520284970664086 5.197883607917493, 60.42839813421489 5.548287939305125 M60.42839813421489 5.548287939305125 C60.2764306680527 6.005989734658047, 60.124463201890514 6.463691530010968, 60.034509229970325 6.734618561215495 M60.42839813421489 5.548287939305125 C60.33606892340795 5.826368811593616, 60.24373971260102 6.104449683882107, 60.034509229970325 6.734618561215495 M60.034509229970325 6.734618561215495 C59.85246636811243 7.184267949563792, 59.67042350625454 7.63391733791209, 59.56542114880834 7.893275190886679 M60.034509229970325 6.734618561215495 C59.93944763259821 6.9694225446155675, 59.8443860352261 7.20422652801564, 59.56542114880834 7.893275190886679 M59.56542114880834 7.893275190886679 C59.415907573296366 8.20374332951533, 59.26639399778439 8.514211468143982, 59.023061474273504 9.019496659696284 M59.56542114880834 7.893275190886679 C59.43019962811015 8.174065571893513, 59.29497810741197 8.454855952900346, 59.023061474273504 9.019496659696284 M59.023061474273504 9.019496659696284 C58.8488037004739 9.328908982590487, 58.6745459266743 9.638321305484691, 58.40965887860425 10.108655082055236 M59.023061474273504 9.019496659696284 C58.83265598629593 9.35758088424684, 58.64225049831836 9.695665108797394, 58.40965887860425 10.108655082055236 M58.40965887860425 10.108655082055236 C58.17887149309395 10.46320648128939, 57.94808410758366 10.817757880523544, 57.72773396464064 11.156274872382301 M58.40965887860425 10.108655082055236 C58.22003078144503 10.39997476156567, 58.03040268428582 10.691294441076103, 57.72773396464064 11.156274872382301 M57.72773396464064 11.156274872382301 C57.44545546034085 11.534502352043248, 57.16317695604106 11.912729831704194, 56.98008890812658 12.158051136245302 M57.72773396464064 11.156274872382301 C57.51549238303636 11.44065925612618, 57.303250801432085 11.725043639870059, 56.98008890812658 12.158051136245302 M56.98008890812658 12.158051136245302 C56.692856070032406 12.495451171882214, 56.40562323193823 12.832851207519127, 56.16979594296866 13.10986736009567 M56.98008890812658 12.158051136245302 C56.75743768792555 12.419589928706761, 56.53478646772453 12.681128721168221, 56.16979594296866 13.10986736009567 M56.16979594296866 13.10986736009567 C55.98271826373077 13.303040423271904, 55.79564058449288 13.496213486448138, 55.30018473676799 14.007812326905684 M56.16979594296866 13.10986736009567 C55.97646947200186 13.309492813767342, 55.783143001035064 13.509118267439014, 55.30018473676799 14.007812326905684 M55.30018473676799 14.007812326905684 C55.056469622320506 14.229147945498323, 54.81275450787302 14.450483564090959, 54.37482870850189 14.848196188198111 M55.30018473676799 14.007812326905684 C54.9895216655158 14.289948308522481, 54.678858594263616 14.572084290139278, 54.37482870850189 14.848196188198111 M54.37482870850189 14.848196188198111 C54.170625332227814 15.011042946696621, 53.96642195595375 15.173889705195133, 53.39753034457871 15.627565626425152 M54.37482870850189 14.848196188198111 C54.08872170986907 15.076358905980799, 53.802614711236245 15.304521623763488, 53.39753034457871 15.627565626425152 M53.39753034457871 15.627565626425152 C53.05631456545597 15.865582982948167, 52.71509878633322 16.103600339471182, 52.37230557360571 16.34271804539089 M53.39753034457871 15.627565626425152 C52.99133097712806 15.910912721071517, 52.58513160967741 16.19425981571788, 52.37230557360571 16.34271804539089 M52.37230557360571 16.34271804539089 C52.150652418171205 16.477085490793808, 51.92899926273671 16.611452936196727, 51.30336726407678 16.990714730406093 M52.37230557360571 16.34271804539089 C52.08426948951611 16.517327212253917, 51.796233405426506 16.69193637911695, 51.30336726407678 16.990714730406093 M51.30336726407678 16.990714730406093 C50.99706151538533 17.15051424330023, 50.690755766693876 17.310313756194365, 50.19510791279239 17.56889292409717 M51.30336726407678 16.990714730406093 C51.01986953787204 17.138615312578146, 50.7363718116673 17.286515894750202, 50.19510791279239 17.56889292409717 M50.19510791279239 17.56889292409717 C49.8404657187676 17.725882503305037, 49.485823524742806 17.882872082512907, 49.052081595147804 18.07487676824742 M50.19510791279239 17.56889292409717 C49.9238465881173 17.688972265849536, 49.652585263442205 17.8090516076019, 49.052081595147804 18.07487676824742 M49.052081595147804 18.07487676824742 C48.693690226225236 18.206768104944423, 48.33529885730267 18.338659441641425, 47.87898525146062 18.506587066708033 M49.052081595147804 18.07487676824742 C48.66587396037518 18.21700474790799, 48.27966632560255 18.359132727568554, 47.87898525146062 18.506587066708033 M47.87898525146062 18.506587066708033 C47.58282928807939 18.59448460208521, 47.28667332469815 18.682382137462387, 46.68063938623541 18.86224982926107 M47.87898525146062 18.506587066708033 C47.50966889420159 18.616198222961394, 47.140352536942565 18.725809379214756, 46.68063938623541 18.86224982926107 M46.68063938623541 18.86224982926107 C46.38216865757916 18.930373825373334, 46.083697928922895 18.998497821485596, 45.461968259676766 19.140403561325773 M46.68063938623541 18.86224982926107 C46.28570570783311 18.952390864173292, 45.890772029430806 19.042531899085517, 45.461968259676766 19.140403561325773 M45.461968259676766 19.140403561325773 C45.03995774037736 19.208630949345647, 44.617947221077955 19.276858337365518, 44.22797965284788 19.3399052695533 M45.461968259676766 19.140403561325773 C45.025791795980346 19.210921189377213, 44.589615332283934 19.281438817428658, 44.22797965284788 19.3399052695533 M44.22797965284788 19.3399052695533 C43.93438443057299 19.368228047546243, 43.6407892082981 19.396550825539187, 42.9837442896239 19.45993515863156 M44.22797965284788 19.3399052695533 C43.7882826677227 19.382322308895333, 43.348585682597516 19.424739348237367, 42.9837442896239 19.45993515863156 M42.9837442896239 19.45993515863156 C42.575927225789 19.473013058100985, 42.16811016195411 19.486090957570408, 41.73437500000001 19.5 M42.9837442896239 19.45993515863156 C42.54932145071631 19.473866253522566, 42.11489861180872 19.487797348413572, 41.73437500000001 19.5 M41.73437500000001 19.5 C41.73437500000001 19.5, 41.73437500000001 19.5, 41.734375 19.5 M41.73437500000001 19.5 C41.73437500000001 19.5, 41.734375 19.5, 41.734375 19.5 M41.734375 19.5 C19.4483610565742 19.5, -2.8376528868516004 19.5, -41.73437499999999 19.5 M41.734375 19.5 C23.92960665279642 19.5, 6.124838305592839 19.5, -41.73437499999999 19.5 M-41.73437499999999 19.5 C-42.0315116644347 19.49047140551301, -42.32864832886941 19.480942811026022, -42.98374428962389 19.45993515863156 M-41.73437499999999 19.5 C-42.05035002837284 19.489867295848164, -42.366325056745694 19.47973459169633, -42.98374428962389 19.45993515863156 M-42.98374428962389 19.45993515863156 C-43.421278889622315 19.417726721982056, -43.85881348962074 19.37551828533255, -44.22797965284787 19.3399052695533 M-42.98374428962389 19.45993515863156 C-43.42415450359268 19.417449314960766, -43.86456471756147 19.374963471289973, -44.22797965284787 19.3399052695533 M-44.22797965284787 19.3399052695533 C-44.68101750073218 19.266661623668345, -45.1340553486165 19.19341797778339, -45.46196825967676 19.140403561325773 M-44.22797965284787 19.3399052695533 C-44.572958977509344 19.28413168769665, -44.91793830217081 19.22835810584, -45.46196825967676 19.140403561325773 M-45.46196825967676 19.140403561325773 C-45.94466534154849 19.03023110228138, -46.42736242342023 18.92005864323699, -46.680639386235384 18.862249829261074 M-45.46196825967676 19.140403561325773 C-45.90123858976707 19.04014297498945, -46.340508919857385 18.939882388653132, -46.680639386235384 18.862249829261074 M-46.680639386235384 18.862249829261074 C-46.98356507439377 18.77234307510505, -47.28649076255216 18.682436320949027, -47.87898525146059 18.506587066708043 M-46.680639386235384 18.862249829261074 C-46.97601104806114 18.77458507046868, -47.2713827098869 18.68692031167629, -47.87898525146059 18.506587066708043 M-47.87898525146059 18.506587066708043 C-48.28785848671897 18.356117936550206, -48.69673172197734 18.20564880639237, -49.0520815951478 18.074876768247425 M-47.87898525146059 18.506587066708043 C-48.313449600636275 18.346700170066974, -48.74791394981196 18.186813273425905, -49.0520815951478 18.074876768247425 M-49.0520815951478 18.074876768247425 C-49.453750959006044 17.897069655965712, -49.85542032286429 17.719262543684003, -50.19510791279238 17.568892924097174 M-49.0520815951478 18.074876768247425 C-49.38674219651822 17.92673244737476, -49.721402797888636 17.778588126502093, -50.19510791279238 17.568892924097174 M-50.19510791279238 17.568892924097174 C-50.62510063680493 17.34456599540331, -51.05509336081749 17.12023906670945, -51.30336726407678 16.990714730406097 M-50.19510791279238 17.568892924097174 C-50.57120036426667 17.372685733061747, -50.947292815740965 17.176478542026324, -51.30336726407678 16.990714730406097 M-51.30336726407678 16.990714730406097 C-51.72576799211766 16.73465292676551, -52.14816872015853 16.47859112312492, -52.372305573605686 16.3427180453909 M-51.30336726407678 16.990714730406097 C-51.650256747398394 16.780428287067657, -51.997146230720006 16.570141843729214, -52.372305573605686 16.3427180453909 M-52.372305573605686 16.3427180453909 C-52.69412761400421 16.118228921460485, -53.01594965440273 15.89373979753007, -53.39753034457871 15.627565626425156 M-52.372305573605686 16.3427180453909 C-52.61023304527634 16.1767501408677, -52.84816051694698 16.010782236344504, -53.39753034457871 15.627565626425156 M-53.39753034457871 15.627565626425156 C-53.75523170313843 15.342308311806699, -54.11293306169814 15.057050997188242, -54.374828708501866 14.848196188198125 M-53.39753034457871 15.627565626425156 C-53.691900220201745 15.392813484127162, -53.98627009582478 15.158061341829166, -54.374828708501866 14.848196188198125 M-54.374828708501866 14.848196188198125 C-54.64321397342867 14.604455791676585, -54.91159923835547 14.360715395155045, -55.300184736767974 14.007812326905697 M-54.374828708501866 14.848196188198125 C-54.65006557809398 14.598233345603074, -54.9253024476861 14.348270503008022, -55.300184736767974 14.007812326905697 M-55.300184736767974 14.007812326905697 C-55.55058550286878 13.74925297762139, -55.80098626896958 13.490693628337082, -56.169795942968655 13.109867360095677 M-55.300184736767974 14.007812326905697 C-55.61330688949484 13.684487996408372, -55.926429042221706 13.361163665911048, -56.169795942968655 13.109867360095677 M-56.169795942968655 13.109867360095677 C-56.37513567513436 12.868663626532083, -56.58047540730006 12.62745989296849, -56.980088908126575 12.158051136245307 M-56.169795942968655 13.109867360095677 C-56.42307520715728 12.812351124381305, -56.67635447134591 12.514834888666934, -56.980088908126575 12.158051136245307 M-56.980088908126575 12.158051136245307 C-57.14854692997561 11.932332733809108, -57.31700495182464 11.706614331372911, -57.727733964640635 11.156274872382316 M-56.980088908126575 12.158051136245307 C-57.144058156644775 11.938347281136762, -57.308027405162974 11.718643426028217, -57.727733964640635 11.156274872382316 M-57.727733964640635 11.156274872382316 C-57.87151529966276 10.935388131093875, -58.01529663468488 10.714501389805434, -58.40965887860425 10.108655082055249 M-57.727733964640635 11.156274872382316 C-57.90802712898578 10.879296156454746, -58.088320293330916 10.602317440527175, -58.40965887860425 10.108655082055249 M-58.40965887860425 10.108655082055249 C-58.59592899988863 9.777913619819738, -58.78219912117301 9.44717215758423, -59.023061474273504 9.019496659696289 M-58.40965887860425 10.108655082055249 C-58.55073942888012 9.858152279085608, -58.69181997915599 9.607649476115968, -59.023061474273504 9.019496659696289 M-59.023061474273504 9.019496659696289 C-59.16816537812696 8.718185298618417, -59.31326928198041 8.416873937540547, -59.56542114880834 7.893275190886686 M-59.023061474273504 9.019496659696289 C-59.17380012961868 8.706484616581495, -59.32453878496385 8.3934725734667, -59.56542114880834 7.893275190886686 M-59.56542114880834 7.893275190886686 C-59.70574540752993 7.546671558859381, -59.84606966625152 7.200067926832077, -60.034509229970325 6.73461856121551 M-59.56542114880834 7.893275190886686 C-59.681055163209074 7.6076569396853, -59.79668917760981 7.3220386884839135, -60.034509229970325 6.73461856121551 M-60.034509229970325 6.73461856121551 C-60.18043666375494 6.29510838103537, -60.326364097539546 5.85559820085523, -60.42839813421488 5.5482879393051325 M-60.034509229970325 6.73461856121551 C-60.157604915245784 6.363873969799836, -60.280700600521236 5.993129378384162, -60.42839813421488 5.5482879393051325 M-60.42839813421488 5.5482879393051325 C-60.53659404548989 5.135690037208937, -60.64478995676491 4.723092135112741, -60.74546928754556 4.339158212148136 M-60.42839813421488 5.5482879393051325 C-60.50679447704482 5.249328706904656, -60.58519081987476 4.950369474504179, -60.74546928754556 4.339158212148136 M-60.74546928754556 4.339158212148136 C-60.80163457963368 4.050761307814343, -60.857799871721795 3.762364403480552, -60.984419776581774 3.112197953150904 M-60.74546928754556 4.339158212148136 C-60.827983402117404 3.915465673186004, -60.91049751668925 3.491773134223872, -60.984419776581774 3.112197953150904 M-60.984419776581774 3.112197953150904 C-61.02620781755955 2.788098159309329, -61.06799585853733 2.463998365467754, -61.14426770250937 1.872449005199809 M-60.984419776581774 3.112197953150904 C-61.02825202762313 2.7722436697311426, -61.072084278664484 2.4322893863113806, -61.14426770250937 1.872449005199809 M-61.14426770250937 1.872449005199809 C-61.16653869297866 1.525560351820572, -61.18880968344796 1.178671698441335, -61.22435621591342 0.6250057626472781 M-61.14426770250937 1.872449005199809 C-61.168735235910226 1.491347422643928, -61.193202769311085 1.110245840088047, -61.22435621591342 0.6250057626472781 M-61.22435621591342 0.6250057626472781 C-61.22435621591342 0.21711467413944102, -61.22435621591342 -0.1907764143683961, -61.22435621591342 -0.6250057626472687 M-61.22435621591342 0.6250057626472781 C-61.22435621591342 0.3068683202400744, -61.22435621591342 -0.011269122167129386, -61.22435621591342 -0.6250057626472687 M-61.22435621591342 -0.6250057626472687 C-61.198425567459736 -1.0288965431560602, -61.172494919006056 -1.4327873236648516, -61.14426770250937 -1.8724490051997822 M-61.22435621591342 -0.6250057626472687 C-61.204055610654464 -0.9412040759090726, -61.18375500539551 -1.2574023891708765, -61.14426770250937 -1.8724490051997822 M-61.14426770250937 -1.8724490051997822 C-61.09343086173353 -2.2667295033874604, -61.0425940209577 -2.6610100015751383, -60.984419776581774 -3.112197953150895 M-61.14426770250937 -1.8724490051997822 C-61.090136300705716 -2.292281468134533, -61.03600489890207 -2.7121139310692834, -60.984419776581774 -3.112197953150895 M-60.984419776581774 -3.112197953150895 C-60.9021717100126 -3.5345243918485614, -60.81992364344344 -3.9568508305462275, -60.74546928754556 -4.339158212148126 M-60.984419776581774 -3.112197953150895 C-60.93431487379936 -3.369476039263657, -60.884209971016936 -3.6267541253764186, -60.74546928754556 -4.339158212148126 M-60.74546928754556 -4.339158212148126 C-60.65080671636787 -4.700147623066558, -60.55614414519017 -5.061137033984989, -60.42839813421489 -5.548287939305123 M-60.74546928754556 -4.339158212148126 C-60.6671208386978 -4.637934804037176, -60.588772389850035 -4.936711395926226, -60.42839813421489 -5.548287939305123 M-60.42839813421489 -5.548287939305123 C-60.3048753143149 -5.920318992155218, -60.18135249441492 -6.292350045005315, -60.03450922997033 -6.734618561215485 M-60.42839813421489 -5.548287939305123 C-60.343505874637344 -5.803969899407951, -60.2586136150598 -6.059651859510779, -60.03450922997033 -6.734618561215485 M-60.03450922997033 -6.734618561215485 C-59.900431084401205 -7.065794172995829, -59.76635293883207 -7.396969784776172, -59.56542114880834 -7.893275190886676 M-60.03450922997033 -6.734618561215485 C-59.92900229119457 -6.995222739829512, -59.8234953524188 -7.25582691844354, -59.56542114880834 -7.893275190886676 M-59.56542114880834 -7.893275190886676 C-59.41879874333615 -8.197739753066589, -59.27217633786396 -8.502204315246502, -59.023061474273504 -9.019496659696282 M-59.56542114880834 -7.893275190886676 C-59.35253249524501 -8.335343035098411, -59.13964384168168 -8.777410879310146, -59.023061474273504 -9.019496659696282 M-59.023061474273504 -9.019496659696282 C-58.820216010188815 -9.379669321509208, -58.61737054610412 -9.739841983322135, -58.40965887860425 -10.108655082055243 M-59.023061474273504 -9.019496659696282 C-58.779509535981596 -9.451947788441606, -58.53595759768969 -9.88439891718693, -58.40965887860425 -10.108655082055243 M-58.40965887860425 -10.108655082055243 C-58.19679039405551 -10.435678237513804, -57.983921909506776 -10.762701392972364, -57.72773396464064 -11.156274872382308 M-58.40965887860425 -10.108655082055243 C-58.17304723908818 -10.472154099473455, -57.93643559957211 -10.835653116891667, -57.72773396464064 -11.156274872382308 M-57.72773396464064 -11.156274872382308 C-57.47602948784784 -11.493535940535098, -57.224325011055036 -11.830797008687886, -56.98008890812659 -12.158051136245302 M-57.72773396464064 -11.156274872382308 C-57.428763259001926 -11.556868381146597, -57.1297925533632 -11.957461889910883, -56.98008890812659 -12.158051136245302 M-56.98008890812659 -12.158051136245302 C-56.78220895224993 -12.390492192106489, -56.584328996373266 -12.622933247967676, -56.16979594296866 -13.10986736009567 M-56.98008890812659 -12.158051136245302 C-56.8034940410062 -12.365489515697506, -56.62689917388582 -12.57292789514971, -56.16979594296866 -13.10986736009567 M-56.16979594296866 -13.10986736009567 C-55.960957792317 -13.325509896574554, -55.75211964166533 -13.541152433053437, -55.300184736767996 -14.007812326905677 M-56.16979594296866 -13.10986736009567 C-55.83839913558125 -13.452061771907061, -55.50700232819384 -13.794256183718453, -55.300184736767996 -14.007812326905677 M-55.300184736767996 -14.007812326905677 C-54.97289620576999 -14.305047111178064, -54.64560767477199 -14.602281895450453, -54.37482870850189 -14.848196188198107 M-55.300184736767996 -14.007812326905677 C-55.04561551551166 -14.239005358118177, -54.79104629425534 -14.470198389330676, -54.37482870850189 -14.848196188198107 M-54.37482870850189 -14.848196188198107 C-54.04349213286875 -15.112428290028955, -53.71215555723562 -15.376660391859804, -53.39753034457872 -15.627565626425149 M-54.37482870850189 -14.848196188198107 C-54.00164215121602 -15.14580253672223, -53.62845559393014 -15.443408885246354, -53.39753034457872 -15.627565626425149 M-53.39753034457872 -15.627565626425149 C-53.162798953300914 -15.791304083622393, -52.9280675620231 -15.955042540819637, -52.372305573605715 -16.342718045390885 M-53.39753034457872 -15.627565626425149 C-53.02765330479618 -15.88557583765846, -52.657776265013645 -16.14358604889177, -52.372305573605715 -16.342718045390885 M-52.372305573605715 -16.342718045390885 C-52.071312569943935 -16.52518177304188, -51.77031956628216 -16.707645500692877, -51.30336726407679 -16.99071473040609 M-52.372305573605715 -16.342718045390885 C-52.13962672657387 -16.48376932983427, -51.906947879542024 -16.624820614277656, -51.30336726407679 -16.99071473040609 M-51.30336726407679 -16.99071473040609 C-50.87685019970923 -17.213228409689428, -50.45033313534167 -17.435742088972766, -50.19510791279239 -17.56889292409717 M-51.30336726407679 -16.99071473040609 C-50.95991979290367 -17.169891056128503, -50.61647232173055 -17.349067381850915, -50.19510791279239 -17.56889292409717 M-50.19510791279239 -17.56889292409717 C-49.96218301546556 -17.672001866672172, -49.72925811813873 -17.775110809247174, -49.052081595147804 -18.07487676824742 M-50.19510791279239 -17.56889292409717 C-49.95567691179819 -17.674881925769007, -49.716245910804005 -17.78087092744084, -49.052081595147804 -18.07487676824742 M-49.052081595147804 -18.07487676824742 C-48.698820891969234 -18.204879972523276, -48.345560188790664 -18.334883176799135, -47.87898525146062 -18.506587066708033 M-49.052081595147804 -18.07487676824742 C-48.73267457960658 -18.192421502532675, -48.413267564065364 -18.30996623681793, -47.87898525146062 -18.506587066708033 M-47.87898525146062 -18.506587066708033 C-47.4719000297335 -18.62740782368271, -47.064814808006375 -18.748228580657386, -46.68063938623541 -18.862249829261067 M-47.87898525146062 -18.506587066708033 C-47.50669395667562 -18.617081168803338, -47.13440266189062 -18.72757527089864, -46.68063938623541 -18.862249829261067 M-46.68063938623541 -18.862249829261067 C-46.3646071865883 -18.934382116527686, -46.04857498694119 -19.006514403794306, -45.461968259676766 -19.140403561325773 M-46.68063938623541 -18.862249829261067 C-46.39371103126967 -18.9277393538995, -46.10678267630393 -18.99322887853793, -45.461968259676766 -19.140403561325773 M-45.461968259676766 -19.140403561325773 C-45.17305781610469 -19.187112361308554, -44.88414737253261 -19.233821161291335, -44.22797965284788 -19.3399052695533 M-45.461968259676766 -19.140403561325773 C-44.97163669326265 -19.219676566405518, -44.48130512684854 -19.298949571485263, -44.22797965284788 -19.3399052695533 M-44.22797965284788 -19.3399052695533 C-43.84709403295035 -19.376648847222835, -43.466208413052826 -19.413392424892372, -42.9837442896239 -19.45993515863156 M-44.22797965284788 -19.3399052695533 C-43.94596335102857 -19.367111043015584, -43.663947049209256 -19.394316816477865, -42.9837442896239 -19.45993515863156 M-42.9837442896239 -19.45993515863156 C-42.51436241164633 -19.4749873218619, -42.04498053366876 -19.49003948509224, -41.73437500000001 -19.5 M-42.9837442896239 -19.45993515863156 C-42.59090426670061 -19.47253277354999, -42.19806424377733 -19.485130388468423, -41.73437500000001 -19.5 M-41.73437500000001 -19.5 C-41.73437500000001 -19.5, -41.734375 -19.5, -41.734375 -19.5 M-41.73437500000001 -19.5 C-41.73437500000001 -19.5, -41.734375 -19.5, -41.734375 -19.5" stroke="#cbd5e1" stroke-width="1.3" fill="none" stroke-dasharray="0 0" style=""/></g><g class="label" style="" transform="translate(-48.859375, -12)"><rect/><foreignObject width="97.71875" height="24"><div xmlns="http://www.w3.org/1999/xhtml" style="display: table-cell; white-space: nowrap; line-height: 1.5; max-width: 200px; text-align: center;"><span class="nodeLabel"><p>User question</p></span></div></foreignObject></g></g><g class="node default" id="my-svg-flowchart-fanOut-1" data-look="classic" transform="translate(260.36277770996094, 120.171875)"><rect class="basic label-container" style="" x="-79.9140625" y="-27" width="159.828125" height="54"/><g class="label" style="" transform="translate(-49.9140625, -12)"><rect/><foreignObject width="99.828125" height="24"><div xmlns="http://www.w3.org/1999/xhtml" style="display: table-cell; white-space: nowrap; line-height: 1.5; max-width: 200px; text-align: center;"><span class="nodeLabel"><p>Query fan-out</p></span></div></foreignObject></g></g><g class="node default" id="my-svg-flowchart-retrieval-2" data-look="classic" transform="translate(520.2768402099609, 120.171875)"><rect class="basic label-container" style="" x="-130" y="-39" width="260" height="78"/><g class="label" style="" transform="translate(-100, -24)"><rect/><foreignObject width="200" height="48"><div xmlns="http://www.w3.org/1999/xhtml" style="display: table; white-space: break-spaces; line-height: 1.5; max-width: 200px; text-align: center; width: 200px;"><span class="nodeLabel"><p>Search index and web retrieval</p></span></div></foreignObject></g></g><g class="node default" id="my-svg-flowchart-candidateSources-3" data-look="classic" transform="translate(815.0034027099609, 120.171875)"><rect class="basic label-container" style="" x="-114.7265625" y="-27" width="229.453125" height="54"/><g class="label" style="" transform="translate(-84.7265625, -12)"><rect/><foreignObject width="169.453125" height="24"><div xmlns="http://www.w3.org/1999/xhtml" style="display: table-cell; white-space: nowrap; line-height: 1.5; max-width: 200px; text-align: center;"><span class="nodeLabel"><p>Candidate source pages</p></span></div></foreignObject></g></g><g class="node default" id="my-svg-flowchart-evaluate-4" data-look="classic" transform="translate(1091.901840209961, 120.171875)"><polygon points="112.171875,0 224.34375,-112.171875 112.171875,-224.34375 0,-112.171875" class="label-container" transform="translate(-111.671875, 112.171875)"/><g class="label" style="" transform="translate(-85.171875, -12)"><rect/><foreignObject width="170.34375" height="24"><div xmlns="http://www.w3.org/1999/xhtml" style="display: table-cell; white-space: nowrap; line-height: 1.5; max-width: 200px; text-align: center;"><span class="nodeLabel"><p>Useful and trustworthy?</p></span></div></foreignObject></g></g><g class="node default" id="my-svg-flowchart-synthesize-5" data-look="classic" transform="translate(1372.479965209961, 68.171875)"><rect class="basic label-container" style="" x="-95.4609375" y="-27" width="190.921875" height="54"/><g class="label" style="" transform="translate(-65.4609375, -12)"><rect/><foreignObject width="130.921875" height="24"><div xmlns="http://www.w3.org/1999/xhtml" style="display: table-cell; white-space: nowrap; line-height: 1.5; max-width: 200px; text-align: center;"><span class="nodeLabel"><p>Generated answer</p></span></div></foreignObject></g></g><g class="node default" id="my-svg-flowchart-cite-6" data-look="classic" transform="translate(1602.058090209961, 68.171875)"><rect class="basic label-container" style="" x="-83.828125" y="-27" width="167.65625" height="54"/><g class="label" style="" transform="translate(-53.828125, -12)"><rect/><foreignObject width="107.65625" height="24"><div xmlns="http://www.w3.org/1999/xhtml" style="display: table-cell; white-space: nowrap; line-height: 1.5; max-width: 200px; text-align: center;"><span class="nodeLabel"><p>Citation or link</p></span></div></foreignObject></g></g><g class="node default" id="my-svg-flowchart-unused-7" data-look="classic" transform="translate(1372.479965209961, 172.171875)"><rect class="basic label-container" style="" x="-95.75" y="-27" width="191.5" height="54"/><g class="label" style="" transform="translate(-65.75, -12)"><rect/><foreignObject width="131.5" height="24"><div xmlns="http://www.w3.org/1999/xhtml" style="display: table-cell; white-space: nowrap; line-height: 1.5; max-width: 200px; text-align: center;"><span class="nodeLabel"><p>Not used this time</p></span></div></foreignObject></g></g></g></g></g><defs><filter id="my-svg-drop-shadow" height="130%" width="130%"><feDropShadow dx="4" dy="4" stdDeviation="0" flood-opacity="0.06" flood-color="#000000"/></filter></defs><defs><filter id="my-svg-drop-shadow-small" height="150%" width="150%"><feDropShadow dx="2" dy="2" stdDeviation="0" flood-opacity="0.06" flood-color="#000000"/></filter></defs><linearGradient id="my-svg-gradient" gradientUnits="objectBoundingBox" x1="0%" y1="0%" x2="100%" y2="0%"><stop offset="0%" stop-color="#243684" stop-opacity="1"/><stop offset="100%" stop-color="hsl(175.9615384615, 38.7878787879%, 15.8823529412%)" stop-opacity="1"/></linearGradient></svg>